<?xml version="1.0" encoding="UTF-8"?>
<svg xmlns="http://www.w3.org/2000/svg" width="719.5" height="719.5" version="1.1" viewBox="0 0 719.5 719.5">
  <defs>
    <style>
      .cls-1 {
        fill: #ccc;
      }
    </style>
  </defs>
  <!-- Generator: Adobe Illustrator 28.7.1, SVG Export Plug-In . SVG Version: 1.2.0 Build 142)  -->
  <g>
    <g id="_レイヤー_1" data-name="レイヤー_1">
      <g>
        <path class="cls-1" d="M357-44.4c-5.9-47.8-21.2-93.4-45.5-135.4s-56.1-78.1-94.5-107.1c-37.1-28.1-78.8-48.4-123.9-60.5-45.1-12.1-91.4-15.3-137.5-9.6-47.8,6-93.3,21.3-135.3,45.6-42,24.3-78.1,56.1-107.1,94.5-28.1,37.1-48.4,78.8-60.5,123.9-12.1,45.1-15.3,91.4-9.6,137.5,5.9,47.8,21.2,93.4,45.5,135.4,24.3,42,56.1,78.1,94.5,107.1,37.1,28.1,78.8,48.4,123.9,60.5,30.7,8.2,61.9,12.3,93.1,12.3,14.7,0,29.5-1,44.3-2.8,47.8-5.9,93.4-21.2,135.4-45.5s78.1-56.1,107.1-94.5c28.1-37.1,48.4-78.8,60.5-123.9,12.1-45.1,15.3-91.4,9.6-137.5ZM340.6,91.4c-24.4,91-82.7,167-164.3,214.1C94.7,352.6-.3,365.1-91.3,340.7c-91-24.4-167-82.7-214.1-164.3C-352.5,94.8-365-.2-340.6-91.2c24.4-91,82.7-167.1,164.3-214.2,54.4-31.4,114.7-47.4,175.8-47.4h0c30.6,0,61.4,4.2,91.8,12.3,91,24.4,167,82.7,214.1,164.3C352.5-94.6,365,.4,340.6,91.4Z"/>
        <path class="cls-1" d="M.2,359.8s0,0,0,0,0,0,0,0h0Z"/>
        <path class="cls-1" d="M298.4-168.8l-.6-1c-.3-.5-.6-1.1-.9-1.6-.2-.3-.4-.5-.6-.7-45.8-78.9-119.5-135.3-207.6-158.9-88.4-23.7-180.7-11.5-260,34.3-79.3,45.7-136,119.6-159.7,208-23.7,88.5-11.5,180.8,34.2,260.1,45.8,79.3,119.7,136,208.1,159.7,29.4,7.9,59.2,11.8,88.8,11.8H.1c.3.1.5,0,.8,0,59.3,0,117.7-15.7,170.4-46.1,52.7-30.4,95.4-73.3,125.1-124.6.2-.2.4-.4.5-.7.1-.2.2-.4.2-.6,14.6-25.5,26-53.1,33.9-82.2,23-85.9,12.2-175.5-30.4-253.2-.7-1.4-1.4-2.9-2.2-4.3ZM293.9-63.8c-15.5-30.8-15.5-67.4,0-98.2.1.2.3.5.4.7,15.3,30.9,15.1,66.7-.4,97.5ZM287.5,173.6c-9.5,14.3-21.8,26-36.8,34.6-14.8,8.5-31.4,13.5-48.4,14.5,9.4-14.2,22-26.1,36.8-34.7,14.8-8.5,31.4-13.5,48.4-14.5h0q0,.1,0,.1ZM.1,332c-15.4-30.8-15.4-67.4,0-98.3,15.4,30.8,15.4,67.4,0,98.3ZM.1-331.7c15.4,30.8,15.4,67.4,0,98.3-15.4-30.8-15.4-67.4,0-98.3ZM287.5-165.7c-9.4,14.1-22,26-36.8,34.6-14.8,8.5-31.4,13.5-48.4,14.5,9.4-14.2,22-26.1,36.8-34.7,14.8-8.5,31.4-13.5,48.4-14.5h0ZM137.7,125.4c-9.5,5.5-18.2,12.2-25.7,20,6-21.1,6-43.5,0-64.6,15.2,15.8,34.7,27,56,32.3-10.6,2.6-20.8,6.7-30.3,12.2ZM189.6,116.9h0c-9.4,14.2-22,26.1-36.8,34.7-14.8,8.5-31.4,13.5-48.4,14.5,9.4-14.2,22-26.1,36.8-34.7,14.8-8.5,31.4-13.5,48.4-14.5ZM39.8,181.9c-9.5,5.5-18.2,12.2-25.7,20,6-21,6-43.3,0-64.3,15.2,15.7,34.5,26.8,55.6,32.1-10.5,2.6-20.6,6.7-30,12.1ZM91.7,173.5h0c-9.4,14.2-22,26.1-36.8,34.7-14.8,8.5-31.4,13.5-48.4,14.5,9.4-14.2,22-26.1,36.8-34.7,14.8-8.5,31.4-13.5,48.4-14.5ZM-69.8,169.8c10.6-2.6,20.8-6.7,30.3-12.2,9.5-5.4,18-12.1,25.5-19.9-6,21-5.9,43.4.1,64.4-15.2-15.8-34.7-27.1-56-32.4ZM-6.3,222.7c-34.4-2.1-66.1-20.4-85.1-49.2,34.4,2.1,66.1,20.4,85.1,49.2ZM-167.7,113.3c10.6-2.6,20.8-6.7,30.3-12.2,9.5-5.4,18-12.1,25.5-19.9-6,21-5.9,43.4.1,64.4-15.2-15.8-34.7-27.1-56-32.4ZM-104.2,166.1c-34.4-2.1-66.1-20.4-85.1-49.2,34.4,2.1,66.1,20.4,85.1,49.2ZM-104.2-165.7c-9.4,14.1-22,26-36.8,34.6-14.8,8.5-31.4,13.5-48.4,14.5,9.4-14.2,22-26.1,36.8-34.7,14.8-8.5,31.4-13.5,48.4-14.5h0ZM-137.5-125.2c9.5-5.5,18.2-12.2,25.7-20-6,21.1-6,43.6,0,64.7-15.3-15.9-34.8-27.1-56.2-32.4,10.6-2.6,20.9-6.7,30.5-12.2ZM-6.3-222.2c-9.4,14.1-22,26-36.8,34.6-14.8,8.5-31.4,13.5-48.4,14.5,9.4-14.2,22-26.1,36.8-34.7,14.8-8.5,31.4-13.5,48.4-14.5h0ZM-39.5-181.7c9.5-5.4,18.1-12.1,25.6-19.9-6,21.1-6,43.5,0,64.6-15.3-15.8-34.8-27.1-56.2-32.4,10.6-2.6,20.9-6.7,30.5-12.2ZM69.8-169.5c-10.5,2.6-20.6,6.7-30,12.1-9.5,5.5-18.2,12.3-25.7,20.1,6-21,6-43.4,0-64.4,15.2,15.7,34.5,26.9,55.7,32.2ZM6.5-222.3c34.4,2.1,66.1,20.4,85.1,49.2-34.4-2.1-66.1-20.4-85.1-49.2ZM167.7-112.9c-10.5,2.6-20.6,6.7-30,12.1-9.5,5.5-18.2,12.2-25.7,20,6-21,6-43.3,0-64.3,15.2,15.7,34.5,26.8,55.6,32.1ZM104.4-165.8c34.4,2.1,66.1,20.4,85.1,49.2-34.4-2.1-66.1-20.4-85.1-49.2ZM195.9-105.5c15.4,30.8,15.5,67.4,0,98.3-15.4-30.8-15.4-67.4,0-98.3ZM182-24c-15.2-15.8-34.7-27.1-56-32.4,10.6-2.6,20.8-6.7,30.3-12.2,9.5-5.4,18-12.1,25.5-19.9-6,21-5.9,43.4.1,64.4ZM195.9,7.5c15.4,30.8,15.5,67.4,0,98.3-15.4-30.8-15.4-67.4,0-98.3ZM182.1,89c-15.2-15.8-34.7-27.1-56-32.4,10.6-2.6,20.8-6.7,30.3-12.2,9.5-5.5,18.1-12.2,25.7-20-6,21.1-6,43.5,0,64.6ZM.1,120.6c15.4,30.8,15.5,67.4,0,98.3-15.4-30.8-15.4-67.4,0-98.3ZM-195.7,105.8c-15.4-30.8-15.4-67.4,0-98.3,15.4,30.8,15.4,67.4,0,98.3ZM-181.6,24.5c15.2,15.7,34.5,26.8,55.6,32.1-10.5,2.6-20.6,6.7-30,12.1-9.5,5.5-18.2,12.2-25.7,20,6-21,6-43.3,0-64.3ZM-195.8-7.3c-15.4-30.8-15.4-67.4,0-98.3h0c15.4,30.8,15.4,67.4,0,98.3ZM-181.6-88.6c15.2,15.7,34.5,26.8,55.7,32.1-10.5,2.6-20.5,6.7-30,12.1-9.6,5.5-18.3,12.3-25.8,20.2,6-21,6.1-43.4.1-64.4ZM.1-120.3c-15.4-30.8-15.4-67.4,0-98.3,15.4,30.8,15.5,67.4,0,98.3ZM98-63.8c-15.4-30.8-15.4-67.4,0-98.3h0c15.4,30.8,15.5,67.4,0,98.3ZM.1,7.5C15.5,38.3,15.6,74.9.1,105.8-15.3,75-15.3,38.4.1,7.5ZM.1-7.3C-15.3-38.1-15.3-74.7.1-105.6H.1C15.5-74.8,15.5-38.2.1-7.3ZM-27.9.1c-10.5,2.6-20.7,6.7-30.2,12.2-9.5,5.5-18.2,12.2-25.7,20,6-21,6-43.4,0-64.4C-68.5-16.4-49.1-5.2-27.9.1ZM-91.4-52.7C-57-50.6-25.3-32.3-6.3-3.5c-34.4-2.1-66.1-20.4-85.1-49.2ZM-54.7,18.3C-39.9,9.8-23.3,4.8-6.3,3.8h0c-9.4,14.2-22,26.1-36.8,34.7-14.8,8.5-31.4,13.5-48.4,14.5,9.4-14.2,22-26.1,36.8-34.7ZM28.1.2c10.6-2.6,20.8-6.7,30.3-12.2,9.5-5.4,18-12.1,25.5-19.8-6,21-5.9,43.4.1,64.4C68.8,16.7,49.4,5.5,28.1.2ZM91.6,53C57.2,50.9,25.5,32.6,6.5,3.8c34.4,2.1,66.1,20.4,85.1,49.2ZM6.4-3.5c9.4-14.2,22-26.1,36.8-34.7,14.8-8.5,31.4-13.5,48.4-14.5h0c-9.4,14.2-22,26.1-36.8,34.7C40-9.5,23.4-4.5,6.4-3.5ZM39.8-44.3c-9.5,5.4-18.1,12.1-25.6,19.9,5.9-20.9,6-43.1,0-64,15.2,15.6,34.4,26.7,55.5,32-10.5,2.6-20.6,6.7-30,12.1ZM-13.8-24.1c-15.2-15.7-34.6-27-55.8-32.3,10.5-2.6,20.7-6.7,30.1-12.1,9.4-5.4,18-12.1,25.5-19.8-5.9,21-5.9,43.3.2,64.3ZM-97.8-49c15.4,30.8,15.5,67.4,0,98.3-15.4-30.8-15.4-67.4,0-98.3ZM-39.5,44.6c9.4-5.4,18-12.1,25.5-19.8-5.9,21-5.9,43.3.2,64.3-15.2-15.7-34.6-27-55.8-32.3,10.5-2.6,20.7-6.7,30.1-12.1ZM14.2,24.5c15.1,15.6,34.4,26.7,55.4,32.1-10.4,2.6-20.4,6.7-29.8,12.1-9.5,5.5-18.2,12.3-25.7,20.1,6-21,6-43.3,0-64.3ZM98,49.3c-15.4-30.8-15.4-67.4,0-98.3,15.4,30.8,15.5,67.4,0,98.3ZM6.5-109.2c34.4,2.1,66.1,20.4,85.1,49.2-34.4-2.1-66.1-20.4-85.1-49.2ZM-6.3-109.2c-9.4,14.1-22,26-36.8,34.6-14.8,8.5-31.4,13.5-48.4,14.5,9.4-14.2,22-26.1,36.8-34.7,14.8-8.5,31.4-13.5,48.4-14.5h0ZM-104.2-52.6c-9.4,14.1-22,26-36.8,34.6-14.8,8.5-31.4,13.5-48.4,14.5,9.4-14.2,22-26.1,36.8-34.7,14.8-8.5,31.4-13.5,48.4-14.5h0ZM-137.3-12c9.4-5.4,17.9-12,25.4-19.7-5.9,21-5.9,43.3.2,64.3C-127,16.7-146.4,5.5-167.6.2c10.6-2.6,20.8-6.7,30.4-12.2ZM-104.2,53c-34.4-2.1-66.1-20.4-85.1-49.2,34.4,2.1,66.1,20.4,85.1,49.2ZM-6.3,109.6c-34.4-2.1-66.1-20.4-85.1-49.2,34.4,2.1,66.1,20.4,85.1,49.2ZM43.2,74.9c14.8-8.5,31.4-13.5,48.4-14.5h0c-9.4,14.2-22,26.1-36.8,34.7-14.8,8.5-31.4,13.5-48.4,14.5,9.4-14.2,22-26.1,36.8-34.7ZM137.7,12.2c-9.5,5.5-18.2,12.3-25.7,20.1,6-21,6-43.3,0-64.3C127.2-16.4,146.5-5.2,167.5.1c-10.4,2.6-20.4,6.7-29.8,12.1ZM189.6,3.8h0c-9.4,14.2-22,26.1-36.8,34.7-14.8,8.5-31.4,13.5-48.4,14.5,9.4-14.2,22-26.1,36.8-34.7,14.8-8.5,31.4-13.5,48.4-14.5ZM104.4-52.7c34.4,2.1,66.1,20.4,85.1,49.2-34.4-2.1-66.1-20.4-85.1-49.2ZM84.1-80.6c-15.2-15.8-34.7-27.1-56-32.4,10.6-2.6,20.8-6.7,30.3-12.2,9.5-5.4,18-12.1,25.5-19.8-6,21-5.9,43.4.1,64.4ZM91.6-165.7c-9.4,14.1-22,26-36.8,34.6-14.8,8.5-31.4,13.5-48.4,14.5,9.4-14.2,22-26.1,36.8-34.7,14.8-8.5,31.4-13.5,48.4-14.5h0ZM-28.1-112.9c-10.5,2.6-20.6,6.7-30,12.1-9.5,5.5-18.2,12.2-25.7,20,6-21,6-43.3,0-64.3,15.2,15.7,34.5,26.8,55.6,32.1ZM-91.4-165.8c34.4,2.1,66.1,20.4,85.1,49.2-34.4-2.1-66.1-20.4-85.1-49.2ZM-97.8-63.8c-15.4-30.8-15.4-67.4,0-98.3h0c15.4,30.8,15.5,67.4,0,98.3ZM-189.4-109.3c34.4,2.1,66.1,20.4,85.1,49.2-34.4-2.1-66.1-20.4-85.1-49.2ZM-152.6,74.9c14.8-8.5,31.4-13.5,48.4-14.5h0c-9.4,14.2-22,26.1-36.8,34.7-14.8,8.5-31.4,13.5-48.4,14.5,9.4-14.2,22-26.1,36.8-34.7ZM-97.8,64.1c15.4,30.8,15.5,67.4,0,98.3-15.4-30.8-15.4-67.4,0-98.3ZM-83.8,81c15.2,15.7,34.5,26.9,55.7,32.2-10.5,2.6-20.6,6.7-30,12.1-9.5,5.5-18.2,12.3-25.7,20.1,6-21,6-43.4,0-64.4ZM-54.7,131.4c14.8-8.5,31.4-13.5,48.4-14.5h0c-9.4,14.2-22,26.1-36.8,34.7-14.8,8.5-31.4,13.5-48.4,14.5,9.4-14.2,22-26.1,36.8-34.7ZM27.9,113.2c10.6-2.6,20.9-6.7,30.5-12.2,9.5-5.4,18.1-12.1,25.6-19.9-6,21.1-6,43.5,0,64.6-15.3-15.8-34.8-27.1-56.2-32.4ZM91.6,166.1c-34.4-2.1-66.1-20.4-85.1-49.2,34.4,2.1,66.1,20.4,85.1,49.2ZM98,64.1c15.4,30.8,15.5,67.4,0,98.3-15.4-30.8-15.4-67.4,0-98.3ZM189.5,109.6c-34.4-2.1-66.1-20.4-85.1-49.2,34.4,2.1,66.1,20.4,85.1,49.2ZM104.4-60c9.4-14.2,22-26.1,36.8-34.7,14.8-8.5,31.4-13.5,48.4-14.5h0c-9.4,14.2-22,26.1-36.8,34.7-14.8,8.5-31.4,13.5-48.4,14.5ZM-209.6-24.1c-15.2-15.8-34.7-27.1-56-32.4,10.6-2.6,20.8-6.7,30.3-12.2,9.5-5.5,18.1-12.2,25.7-20-6,21.1-6,43.5,0,64.6ZM-209.6,89c-15.2-15.8-34.6-27-55.8-32.3,10.5-2.6,20.6-6.7,30.1-12.1,9.5-5.4,18.1-12.2,25.6-20-6,21-5.9,43.4.1,64.4ZM210.1,24.5c15.2,15.6,34.5,26.8,55.6,32.1-10.5,2.6-20.6,6.7-30.1,12.1-9.5,5.4-18.1,12.1-25.6,19.9,6-20.9,6-43.2,0-64.1ZM209.9-88.8c15.3,15.8,34.7,27.1,56,32.4-10.5,2.6-20.7,6.7-30.2,12.2-9.6,5.5-18.3,12.3-25.8,20.2,6.1-21.1,6.1-43.6,0-64.7ZM126-169.4c10.6-2.6,20.8-6.7,30.3-12.2,9.5-5.4,18-12.1,25.5-19.9-6,21-5.9,43.4.1,64.4-15.2-15.8-34.7-27.1-56-32.4ZM28.1-226c10.6-2.6,20.8-6.7,30.3-12.2,9.5-5.4,18-12.1,25.5-19.9-6,21-5.9,43.4.1,64.4-15.2-15.8-34.7-27.1-56-32.4ZM-58.1-214c-9.5,5.5-18.2,12.3-25.7,20.1,6-21,6-43.3,0-64.3,15.1,15.6,34.4,26.7,55.4,32.1-10.4,2.6-20.4,6.7-29.8,12.1ZM-156.1-157.5c-9.5,5.5-18.2,12.3-25.7,20.1,6-21,6-43.4,0-64.4,15.1,15.7,34.4,26.9,55.5,32.2-10.4,2.6-20.5,6.7-29.9,12.1ZM-202.1-109.2c-9.4,14.1-22,26-36.8,34.6-14.8,8.5-31.4,13.5-48.4,14.5,9.4-14.2,22-26.1,36.8-34.7,14.8-8.5,31.4-13.5,48.4-14.5h0ZM-202.2-3.5c-34.4-2.1-66.1-20.4-85.1-49.2,34.4,2.1,66.1,20.4,85.1,49.2ZM-202.1,3.9c-9.4,14.1-22,26-36.8,34.6-14.8,8.5-31.4,13.5-48.4,14.5,9.4-14.2,22-26.1,36.8-34.7,14.8-8.5,31.4-13.5,48.4-14.5h0ZM-202.2,109.6c-34.4-2.1-66.1-20.4-85.1-49.2,34.4,2.1,66.1,20.4,85.1,49.2ZM-126.2,169.7c-10.4,2.6-20.4,6.7-29.8,12.1-9.5,5.5-18.2,12.3-25.7,20.1,6-21,6-43.3,0-64.3,15.1,15.6,34.4,26.7,55.4,32.1ZM-28.1,226.3c-10.5,2.6-20.6,6.7-30,12.1-9.5,5.5-18.2,12.2-25.7,20,6-21,6-43.3,0-64.3,15.2,15.7,34.5,26.8,55.6,32.1ZM58.4,214.2c9.5-5.4,18-12.1,25.5-19.8-6,21-5.9,43.4.1,64.4-15.2-15.8-34.7-27.1-56-32.4,10.6-2.6,20.8-6.7,30.3-12.2ZM156.3,157.7c9.5-5.4,18.1-12.2,25.6-20-6,21-5.9,43.4.1,64.4-15.2-15.8-34.6-27-55.8-32.3,10.5-2.6,20.6-6.7,30.1-12.1ZM239.1,74.9c14.8-8.5,31.4-13.5,48.4-14.5h0c-9.4,14.2-22,26.1-36.8,34.7-14.8,8.5-31.4,13.5-48.4,14.5,9.4-14.2,22-26.1,36.8-34.7ZM202.3,3.9c34.4,2.1,66.1,20.4,85.1,49.2-34.4-2.1-66.1-20.4-85.1-49.2ZM239.1-38.2c14.8-8.5,31.4-13.5,48.4-14.5h0c-9.4,14.2-22,26.1-36.8,34.7-14.8,8.5-31.4,13.5-48.4,14.5,9.4-14.2,22-26.1,36.8-34.7ZM202.3-109.2c34.4,2.1,66.1,20.4,85.1,49.2-34.4-2.1-66.1-20.4-85.1-49.2ZM195.9-120.3c-15.4-30.8-15.4-67.4,0-98.3,15.4,30.8,15.5,67.4,0,98.3ZM189.5-222.2c-9.4,14.1-22,26-36.8,34.6-14.8,8.5-31.4,13.5-48.4,14.5,9.4-14.2,22-26.1,36.8-34.7,14.8-8.5,31.4-13.5,48.4-14.5h0ZM98-176.9c-15.4-30.8-15.4-67.4,0-98.3,15.4,30.8,15.5,67.4,0,98.3ZM91.6-278.8c-9.4,14.1-22,26-36.8,34.6-14.8,8.5-31.4,13.5-48.4,14.5,9.4-14.2,22-26.1,36.8-34.7,14.8-8.5,31.4-13.5,48.4-14.5h0ZM-91.5-278.9c34.4,2.1,66.1,20.4,85.1,49.2-34.4-2.1-66.1-20.4-85.1-49.2ZM-97.8-275.2c15.4,30.8,15.4,67.4,0,98.3-15.4-30.8-15.4-67.4,0-98.3ZM-189.4-222.3c34.4,2.1,66.1,20.4,85.1,49.2-34.4-2.1-66.1-20.4-85.1-49.2ZM-195.8-218.7c15.4,30.8,15.4,67.4,0,98.3-15.4-30.8-15.5-67.4,0-98.3ZM-224-113c-10.5,2.6-20.6,6.7-30,12.1-9.5,5.5-18.2,12.3-25.7,20.1,6-21,6-43.4,0-64.4,15.2,15.7,34.5,26.9,55.7,32.2ZM-287.3-165.8c34.4,2.1,66.1,20.4,85.1,49.2-34.4-2.1-66.1-20.4-85.1-49.2ZM-223.7,0c-10.6,2.6-20.8,6.7-30.3,12.2-9.5,5.5-18.2,12.2-25.7,20,6-21.1,6-43.5,0-64.6C-264.5-16.5-245-5.2-223.7,0ZM-223.9,113.1c-10.5,2.6-20.6,6.7-30.1,12.1-9.5,5.5-18.2,12.2-25.7,20,6-21,6-43.4,0-64.4,15.2,15.7,34.5,26.9,55.7,32.3ZM-250.5,131.4c14.8-8.5,31.4-13.5,48.4-14.5h0c-9.4,14.2-22,26.1-36.8,34.7-14.8,8.5-31.4,13.5-48.4,14.5,9.4-14.2,22-26.1,36.8-34.7ZM-195.7,120.6c15.4,30.8,15.5,67.4,0,98.3-15.4-30.8-15.4-67.4,0-98.3ZM-152.6,187.9c14.8-8.5,31.4-13.5,48.4-14.5h0c-9.4,14.2-22,26.1-36.8,34.7-14.8,8.5-31.4,13.5-48.4,14.5,9.4-14.2,22-26.1,36.8-34.7ZM-97.8,177.1c15.4,30.8,15.5,67.4,0,98.3-15.4-30.8-15.4-67.4,0-98.3ZM-54.7,244.5c14.8-8.5,31.4-13.5,48.4-14.5h0c-9.4,14.2-22,26.1-36.8,34.7-14.8,8.5-31.4,13.5-48.4,14.5,9.4-14.2,22-26.1,36.8-34.7ZM91.6,279.2c-34.4-2.1-66.1-20.4-85.1-49.2,34.4,2.1,66.1,20.4,85.1,49.2ZM98,275.5c-15.4-30.8-15.4-67.4,0-98.3,15.4,30.8,15.5,67.4,0,98.3ZM189.5,222.7c-34.4-2.1-66.1-20.4-85.1-49.2,34.4,2.1,66.1,20.4,85.1,49.2ZM196,218.9c-15.4-30.8-15.4-67.4,0-98.3,15.4,30.8,15.5,67.4,0,98.3ZM224,113.2c10.5-2.6,20.7-6.7,30.2-12.2,9.5-5.4,18-12.1,25.5-19.8-5.9,21-5.9,43.2,0,64.2-15.2-15.7-34.6-26.9-55.8-32.2ZM287.4,166.1c-34.4-2.1-66.1-20.4-85.1-49.2,34.4,2.1,66.1,20.4,85.1,49.2ZM224.2.2c10.5-2.6,20.7-6.7,30.1-12.1,9.4-5.4,18-12.1,25.5-19.8-5.9,21-5.9,43.3.2,64.3-15.2-15.7-34.6-27-55.8-32.3ZM224.2-112.9c10.5-2.6,20.6-6.7,30.1-12.1,9.5-5.4,18.1-12.2,25.6-20-6,21-5.9,43.4.1,64.4-15.2-15.8-34.6-27-55.8-32.3ZM287.4-173.1c-34.4-2.1-66.1-20.4-85.1-49.2,34.4,2.1,66.1,20.4,85.1,49.2ZM265.8-169.5c-10.5,2.6-20.7,6.7-30.2,12.2-9.5,5.5-18.2,12.2-25.7,20,6-21,6-43.4,0-64.4,15.2,15.7,34.6,26.9,55.9,32.2ZM167.7-226c-10.5,2.6-20.6,6.7-30,12.1-9.5,5.5-18.2,12.2-25.7,20,6-21,6-43.3,0-64.3,15.2,15.7,34.5,26.8,55.6,32.1ZM104.4-278.9c34.4,2.1,66.1,20.4,85.1,49.2-34.4-2.1-66.1-20.4-85.1-49.2ZM39.8-270.5c-9.5,5.5-18.2,12.3-25.7,20.1,6-21,6-43.4,0-64.4,15.2,15.7,34.5,26.9,55.7,32.2-10.5,2.6-20.6,6.7-30,12.1ZM6.5-335.4c34.4,2.1,66.1,20.4,85.1,49.2-34.4-2.1-66.1-20.4-85.1-49.2ZM-6.3-335.3c-9.4,14.1-22,26-36.8,34.6-14.8,8.5-31.4,13.5-48.4,14.5,9.4-14.2,22-26.1,36.8-34.7,14.8-8.5,31.4-13.5,48.4-14.5h0ZM-39.6-294.7c9.5-5.5,18.1-12.2,25.7-20-6,21.1-6,43.5,0,64.6-15.2-15.8-34.7-27.1-56-32.4,10.6-2.6,20.8-6.7,30.3-12.2ZM-104.2-278.8c-9.4,14.1-22,26-36.8,34.6-14.8,8.5-31.4,13.5-48.4,14.5,9.4-14.2,22-26.1,36.8-34.7,14.8-8.5,31.4-13.5,48.4-14.5h0ZM-137.5-238.1c9.5-5.4,18.1-12.2,25.6-20-6,21-5.9,43.4.1,64.4-15.2-15.8-34.6-27-55.8-32.3,10.5-2.6,20.6-6.7,30.1-12.1ZM-209.7-137.2c-15.2-15.7-34.6-27-55.8-32.3,10.5-2.6,20.7-6.7,30.1-12.1,9.4-5.4,18-12.1,25.5-19.8-5.9,21-5.9,43.3.2,64.3ZM-202.2-222.3c-9.4,14.1-22,26-36.8,34.6-14.8,8.5-31.4,13.5-48.4,14.5,9.4-14.2,22-26.1,36.8-34.7,14.8-8.5,31.4-13.5,48.4-14.5h0ZM-293.7-162.1h0c15.4,30.8,15.4,67.4,0,98.3-15.4-30.8-15.4-67.4,0-98.3ZM-293.7-49c15.4,30.8,15.4,67.4,0,98.3-15.4-30.8-15.4-67.4,0-98.3ZM-293.7,64c15.4,30.8,15.5,67.4,0,98.3-15.4-30.8-15.4-67.4,0-98.3ZM-287.3,173.4c34.4,2.1,66.1,20.4,85.1,49.2-34.4-2.1-66.1-20.4-85.1-49.2ZM-265.6,169.7c10.6-2.6,20.8-6.7,30.3-12.2,9.5-5.5,18.1-12.2,25.7-20-6,21.1-6,43.5,0,64.6-15.2-15.8-34.7-27.1-56-32.4ZM-167.7,226.3c10.6-2.6,20.8-6.7,30.3-12.2,9.5-5.4,18-12.1,25.5-19.9-6,21-5.9,43.4.1,64.4-15.2-15.8-34.7-27.1-56-32.4ZM-104.2,279.2c-34.4-2.1-66.1-20.4-85.1-49.2,34.4,2.1,66.1,20.4,85.1,49.2ZM-39.5,270.7c9.4-5.4,17.9-12,25.4-19.7-5.9,21-5.8,43.2.2,64.1-15.3-15.8-34.7-27-56-32.2,10.6-2.6,20.9-6.7,30.4-12.2ZM-6.3,335.6c-34.8-2-66.1-20.2-85.1-49.1,34.4,2,66.1,20.3,85.1,49.1ZM39.8,295c-9.6,5.5-18.3,12.4-25.9,20.3,6.1-21.1,6.2-43.6.1-64.7,15.2,15.7,34.6,26.9,55.8,32.3-10.5,2.6-20.6,6.7-30,12.1ZM91.7,286.5c-9.4,14.1-22,26-36.8,34.6-15,8.6-31.3,13.5-48.4,14.5,9.4-14.1,22-26,36.8-34.6,14.8-8.5,31.4-13.5,48.4-14.5ZM137.7,238.5c-9.5,5.5-18.2,12.2-25.7,20,6-21.1,6-43.5,0-64.6,15.2,15.8,34.7,27,56,32.3-10.6,2.6-20.8,6.7-30.3,12.2ZM189.6,230h0c-9.4,14.2-22,26.1-36.8,34.7-14.8,8.5-31.4,13.5-48.4,14.5,9.4-14.2,22-26.1,36.8-34.7,14.8-8.5,31.4-13.5,48.4-14.5ZM210.1,137.6c15.1,15.7,34.5,26.9,55.6,32.2-10.4,2.6-20.5,6.7-30,12.1-9.5,5.5-18.2,12.2-25.7,20,6-21,6-43.3,0-64.3ZM293.9,162.4c-15.4-30.8-15.4-67.4,0-98.3,15.5,30.9,15.6,67.1,0,98.3ZM293.9,49.3c-15.4-30.8-15.4-67.4,0-98.3,15.4,30.8,15.5,67.4,0,98.3ZM263.8-207.5c-19-13.6-42-21.5-66-22-20.7-34.3-57.8-55.8-97.8-56.5-12.3-20.5-30.6-36.5-51.8-46.1,12.9,1.9,25.9,4.6,38.7,8,71,19,132.4,59.7,176.9,116.6ZM-167.8-290.7c37.7-21.7,78.4-35.7,120.3-41.7-3.6,1.6-7.2,3.4-10.7,5.4-17.3,9.9-31.6,24-41.8,41-19.7.4-39,5.7-56.1,15.6-17.2,9.9-31.6,24-41.7,40.9-19.7.3-39.1,5.7-56.2,15.6-3.5,2-6.9,4.2-10.1,6.5,26.1-33.2,58.6-61.5,96.3-83.3ZM-324.2-86.8c3.5-13,7.7-25.6,12.6-37.9-2.3,23.3,2.3,47.2,14,68.3-19.4,35.1-19.4,78,0,113.1-11.6,21.1-16.3,45-13.9,68.3-27-67-31.6-140.7-12.6-211.7ZM-263.8,207.7c19,13.7,42,21.6,66.1,22,20.7,34.3,57.8,55.8,97.9,56.5,12.2,20.4,30.1,36.3,51.1,45.9-12.7-1.9-25.5-4.5-38.1-7.9-71-19-132.4-59.7-176.9-116.5ZM167.8,290.8c-37.4,21.6-77.8,35.5-119.3,41.6,3.3-1.5,6.6-3.2,9.8-5.1,17.2-9.9,31.6-24,41.7-40.9,19.7-.3,39.1-5.7,56.2-15.6,17.3-9.9,31.7-24.1,41.8-41.1,19.7-.3,39.1-5.7,56.3-15.6,3.2-1.9,6.4-3.9,9.4-6-26,33-58.3,61.1-95.9,82.7ZM324.2,87c-3.4,12.7-7.5,25-12.2,37,2.2-23-2.6-46.5-14.1-67.3,19.5-35.2,19.4-78.2,0-113.3,9.2-16.6,14.3-35.3,14.7-54.3.1-4.3,0-8.6-.4-12.8,26.6,66.7,31.1,140,12.1,210.6Z"/>
      </g>
    </g>
  </g>
</svg>