<?xml version="1.0" encoding="UTF-8"?>
<svg xmlns="http://www.w3.org/2000/svg" width="719.5" height="719.5" version="1.1" viewBox="0 0 719.5 719.5">
  <defs>
    <style>
      .cls-1 {
        fill: #ccc;
      }
    </style>
  </defs>
  <!-- Generator: Adobe Illustrator 28.7.1, SVG Export Plug-In . SVG Version: 1.2.0 Build 142)  -->
  <g>
    <g id="_レイヤー" data-name="レイヤー">
      <g>
        <path class="cls-1" d="M360.3,702.6c-29.8,0-59.7-3.9-89.3-11.8-88.4-23.7-162.3-80.4-208.1-159.7C17.2,451.8,5,359.5,28.7,271,52.4,182.6,109.1,108.7,188.4,63,267.7,17.2,360,5,448.4,28.7c88.4,23.7,162.3,80.4,208.1,159.7,45.8,79.3,57.9,171.6,34.2,260-23.7,88.4-80.4,162.3-159.7,208.1-52.8,30.5-111.4,46.1-170.8,46.1ZM359.2,23.9c-58.2,0-115.6,15.3-167.3,45.1C114.2,113.9,58.7,186.2,35.5,272.9c-23.2,86.6-11.3,177.1,33.5,254.7,44.8,77.7,117.2,133.2,203.8,156.4,28.9,7.7,58.3,11.6,87.4,11.6,58.2,0,115.6-15.3,167.3-45.1,77.7-44.8,133.2-117.2,156.4-203.8,23.2-86.6,11.3-177.1-33.5-254.7-44.8-77.7-117.2-133.2-203.8-156.4-28.9-7.7-58.3-11.6-87.4-11.6Z"/>
        <path class="cls-1" d="M359.9,719.5c-31.3,0-62.5-4.1-93.2-12.3-45.1-12.1-86.8-32.4-123.9-60.5-38.4-29-70.2-65.1-94.5-107.1-24.3-42-39.6-87.6-45.5-135.4-5.7-46.1-2.5-92.4,9.6-137.5,12.1-45.1,32.4-86.8,60.5-123.9,29-38.4,65.1-70.2,107.1-94.5C222,24,267.5,8.7,315.3,2.7c46.1-5.7,92.4-2.5,137.5,9.6,45.1,12.1,86.8,32.4,123.9,60.5,38.4,29,70.2,65.1,94.5,107.1,24.3,42,39.6,87.6,45.5,135.4,5.7,46.1,2.5,92.4-9.6,137.5-12.1,45.1-32.4,86.8-60.5,123.9-29,38.4-65.1,70.2-107.1,94.5-42,24.3-87.6,39.6-135.4,45.5-14.8,1.8-29.6,2.8-44.3,2.8ZM359.2,6.9c-61.1,0-121.4,16-175.8,47.4C101.8,101.4,43.5,177.5,19.1,268.5c-24.4,91-11.9,186,35.2,267.6,47.1,81.6,123.1,139.9,214.1,164.3,91,24.4,186,11.9,267.6-35.2,81.6-47.1,139.9-123.1,164.3-214.1,24.4-91,11.9-186-35.2-267.6-47.1-81.6-123.1-139.9-214.1-164.3-30.4-8.1-61.2-12.2-91.8-12.2Z"/>
      </g>
      <g>
        <path class="cls-1" d="M66,532.9c-1.3,0-2.4-.7-3-1.8-20.7-35.9-20.7-80.6,0-116.6.6-1.1,1.8-1.8,3-1.8s2.4.7,3,1.8c20.7,35.9,20.7,80.6,0,116.6-.6,1.1-1.8,1.8-3,1.8h0ZM66,423.7c-15.4,30.9-15.4,67.5,0,98.3,15.5-30.9,15.4-67.5,0-98.3Z"/>
        <path class="cls-1" d="M164,476.4h0c-41.5,0-80.2-22.4-101-58.3-.6-1.1-.6-2.4,0-3.5.6-1.1,1.8-1.7,3-1.7h0c41.5,0,80.2,22.4,101,58.3.6,1,.6,2.3,0,3.3-.2.3-.4.6-.7.9-.7.7-1.5,1-2.5,1ZM72.4,420.1c19,28.8,50.7,47.1,85.1,49.2-19-28.8-50.7-47.1-85.1-49.2Z"/>
        <path class="cls-1" d="M164,476.4c-1.3,0-2.4-.7-3-1.8-20.7-35.9-20.7-80.6,0-116.6.5-.9,1.3-1.4,2.2-1.7,1.5-.4,3,.3,3.8,1.7,20.7,35.9,20.7,80.6,0,116.6-.6,1.1-1.8,1.8-3,1.8h0ZM164,367.2c-15.4,30.9-15.4,67.5,0,98.3,15.4-30.9,15.4-67.5,0-98.3Z"/>
        <path class="cls-1" d="M66.1,419.9c-1.3,0-2.5-.6-3.1-1.8-.6-1.1-.6-2.4,0-3.5,10.2-17.7,24.9-32.4,42.7-42.6,17.7-10.2,37.8-15.6,58.2-15.6,1.3,0,2.5.6,3.1,1.8.6,1.1.6,2.4,0,3.5-10.2,17.7-24.9,32.4-42.7,42.6-17.7,10.2-37.8,15.6-58.2,15.6ZM157.6,363.5c-17,1-33.6,6-48.4,14.5-14.8,8.6-27.4,20.5-36.8,34.7,17-1,33.6-6,48.4-14.5,14.8-8.6,27.4-20.5,36.8-34.6Z"/>
        <path class="cls-1" d="M66,419.9c-1.3,0-2.4-.7-3-1.8-20.7-35.9-20.7-80.6,0-116.6.6-1.1,1.8-1.8,3-1.8s2.4.7,3,1.8c20.7,35.9,20.7,80.6,0,116.6-.6,1.1-1.8,1.8-3,1.8h0ZM66,310.7c-15.4,30.9-15.4,67.5,0,98.3,15.4-30.9,15.4-67.5,0-98.3Z"/>
        <path class="cls-1" d="M164,363.3h0c-41.5,0-80.2-22.4-101-58.3-.6-1.1-.6-2.4,0-3.5.6-1.1,1.8-1.7,3-1.7h0c41.5,0,80.2,22.4,101,58.3.5.9.6,1.9.3,2.9-.2.5-.5,1-.8,1.4-.7.7-1.5,1-2.5,1ZM72.4,307c19,28.8,50.7,47.1,85.1,49.2-19-28.8-50.7-47.1-85.1-49.2Z"/>
        <path class="cls-1" d="M261.9,419.9h0c-41.5,0-80.2-22.4-101-58.3-.6-1.1-.6-2.4,0-3.5.6-1.1,1.8-1.7,3-1.7h0c41.5,0,80.2,22.4,101,58.3.6,1,.6,2.3,0,3.3-.6,1.2-1.8,1.9-3.1,1.9ZM170.4,363.5c19,28.8,50.7,47.1,85.1,49.2-19-28.8-50.7-47.1-85.1-49.2Z"/>
        <path class="cls-1" d="M261.9,419.9c-1.3,0-2.4-.7-3-1.8-20.7-35.9-20.7-80.6,0-116.6.6-1.1,1.8-1.8,3-1.8h0c1.3,0,2.4.7,3,1.8,20.7,35.9,20.7,80.6,0,116.6-.6,1.1-1.8,1.8-3,1.8h0ZM261.9,310.7c-15.4,30.9-15.4,67.5,0,98.3,15.5-30.9,15.4-67.5,0-98.3Z"/>
        <path class="cls-1" d="M164.1,363.3h0c-1.2,0-2.4-.7-3-1.8-.6-1.1-.6-2.4,0-3.5,10.2-17.7,24.9-32.4,42.7-42.6,17.7-10.2,37.8-15.6,58.2-15.6,1.3,0,2.5.6,3.1,1.8.6,1.1.6,2.4,0,3.5-10.2,17.7-24.9,32.4-42.7,42.6-17.7,10.2-37.8,15.6-58.2,15.6ZM255.5,307c-17,1-33.6,6-48.4,14.5-14.8,8.6-27.4,20.5-36.8,34.7,17-1,33.6-6,48.4-14.5,14.8-8.6,27.4-20.5,36.8-34.6Z"/>
        <path class="cls-1" d="M164,363.3c-1.3,0-2.4-.7-3-1.8-20.7-35.9-20.7-80.6,0-116.6.6-1.1,1.8-1.8,3-1.8s2.4.7,3,1.8c20.7,35.9,20.7,80.6,0,116.6-.6,1.1-1.8,1.8-3,1.8h0ZM163.9,254.1c-15.4,30.9-15.4,67.5,0,98.3,15.4-30.9,15.4-67.5,0-98.3Z"/>
        <path class="cls-1" d="M261.9,306.8h0c-41.5,0-80.2-22.4-101-58.3-.6-1.1-.6-2.4,0-3.5.6-1.1,1.8-1.7,3-1.7h0c41.5,0,80.2,22.4,101,58.3.5.9.6,1.9.3,2.9,0,.2-.1.3-.2.5-.6,1.2-1.8,1.9-3.1,1.9ZM170.3,250.4c19,28.8,50.7,47.1,85.1,49.2-19-28.8-50.7-47.1-85.1-49.2Z"/>
        <path class="cls-1" d="M262,193.7c-1.3,0-2.5-.6-3.1-1.8-.6-1.1-.6-2.4,0-3.5,10.2-17.7,24.9-32.4,42.7-42.7,17.7-10.2,37.8-15.6,58.2-15.6,1.3,0,2.5.6,3.1,1.8.6,1.1.6,2.4,0,3.5-10.2,17.7-24.9,32.4-42.7,42.6-17.7,10.2-37.8,15.6-58.2,15.6ZM353.4,137.4c-17,1-33.6,6-48.4,14.5-14.8,8.6-27.4,20.5-36.8,34.7,17-1,33.6-6,48.4-14.5,14.8-8.6,27.4-20.5,36.8-34.6Z"/>
        <path class="cls-1" d="M359.8,363.3h0c-41.5,0-80.2-22.4-101-58.3-.6-1.1-.6-2.4,0-3.5.6-1.1,1.8-1.7,3-1.7h0c41.5,0,80.2,22.4,101,58.3.7,1.2.6,2.7-.2,3.8-.7.9-1.7,1.5-2.8,1.5ZM268.3,307c19,28.8,50.7,47.1,85.1,49.2-19-28.8-50.7-47.1-85.1-49.2Z"/>
        <path class="cls-1" d="M359.8,363.3c-1.3,0-2.4-.7-3-1.8-20.7-35.9-20.7-80.6,0-116.6.6-1,1.6-1.6,2.7-1.7,1.4-.1,2.7.5,3.4,1.7,20.7,35.9,20.7,80.6,0,116.6-.6,1.1-1.8,1.8-3,1.8h0ZM359.8,254.1c-15.4,30.9-15.4,67.5,0,98.3,15.4-30.9,15.4-67.5,0-98.3Z"/>
        <path class="cls-1" d="M262,306.8c-1.3,0-2.5-.6-3.1-1.8-.6-1.1-.6-2.4,0-3.5,10.2-17.7,24.9-32.4,42.7-42.6,17.7-10.2,37.8-15.6,58.2-15.6,1.3,0,2.5.6,3.1,1.8.6,1.1.6,2.4,0,3.5-10.2,17.7-24.9,32.4-42.7,42.6-17.7,10.2-37.8,15.6-58.2,15.6ZM353.4,250.4c-17,1-33.6,6-48.4,14.5-14.8,8.6-27.4,20.5-36.8,34.7,17-1,33.6-6,48.4-14.5,14.8-8.6,27.4-20.5,36.8-34.6Z"/>
        <path class="cls-1" d="M261.9,306.8c-1.3,0-2.4-.7-3-1.8-20.7-35.9-20.7-80.6,0-116.6.6-1.1,1.8-1.8,3-1.8s2.4.7,3,1.8c20.7,35.9,20.7,80.6,0,116.6-.6,1.1-1.8,1.8-3,1.8h0ZM261.9,197.6c-15.4,30.9-15.4,67.5,0,98.3,15.5-30.9,15.4-67.5,0-98.3Z"/>
        <path class="cls-1" d="M359.8,250.3h0c-41.5,0-80.2-22.4-101-58.3-.6-1.1-.6-2.4,0-3.5.6-1.1,1.8-1.7,3-1.7h0c41.5,0,80.2,22.4,101,58.3.6,1.1.6,2.4,0,3.5-.6,1.1-1.8,1.8-3,1.8ZM268.3,193.9c19,28.8,50.7,47.1,85.1,49.2-19-28.8-50.7-47.1-85.1-49.2Z"/>
        <path class="cls-1" d="M457.7,306.8h0c-41.5,0-80.2-22.4-101-58.3-.6-1.1-.6-2.4,0-3.5.6-1.1,1.8-1.7,3-1.7h0c41.5,0,80.2,22.4,101,58.3.6,1.1.6,2.4,0,3.5-.6,1.1-1.8,1.8-3,1.8ZM366.2,250.5c19,28.8,50.7,47.1,85.1,49.2-19-28.8-50.7-47.1-85.1-49.2Z"/>
        <path class="cls-1" d="M457.7,306.8c-1.3,0-2.4-.7-3-1.8-20.7-35.9-20.7-80.6,0-116.6.6-1,1.7-1.7,2.8-1.7,1.3,0,2.6.6,3.2,1.7,20.7,35.9,20.7,80.6,0,116.6-.6,1.1-1.8,1.8-3,1.8h0ZM457.7,197.6c-15.4,30.9-15.4,67.5,0,98.3,15.5-30.9,15.4-67.5,0-98.3Z"/>
        <path class="cls-1" d="M359.9,250.3c-1.3,0-2.5-.6-3.1-1.8-.6-1.1-.6-2.4,0-3.5,10.2-17.7,24.9-32.4,42.7-42.7,17.7-10.2,37.8-15.6,58.2-15.6,1.3,0,2.5.6,3.1,1.8.6,1.1.6,2.4,0,3.5-10.2,17.7-24.9,32.4-42.7,42.6-17.7,10.2-37.8,15.6-58.2,15.6ZM451.3,193.9c-17,1-33.6,6-48.4,14.5-14.8,8.6-27.4,20.5-36.8,34.7,17-1,33.6-6,48.4-14.5,14.8-8.6,27.4-20.5,36.8-34.6Z"/>
        <path class="cls-1" d="M359.8,250.3c-1.3,0-2.4-.7-3-1.8-20.7-35.9-20.7-80.6,0-116.6.6-1.1,1.8-1.8,3-1.8s2.4.7,3,1.8c20.7,35.9,20.7,80.6,0,116.6-.6,1.1-1.8,1.8-3,1.8h0ZM359.8,141.1c-15.4,30.9-15.4,67.5,0,98.3,15.5-30.9,15.4-67.5,0-98.3Z"/>
        <path class="cls-1" d="M457.7,193.7h0c-41.5,0-80.2-22.4-101-58.3-.6-1.1-.6-2.4,0-3.5.6-1.1,1.8-1.7,3-1.7h0c41.5,0,80.2,22.4,101,58.3.6,1,.6,2.1.2,3.2-.2.4-.4.8-.7,1.1-.7.7-1.5,1-2.5,1ZM366.2,137.4c19,28.8,50.7,47.1,85.1,49.2-19-28.8-50.7-47.1-85.1-49.2Z"/>
        <path class="cls-1" d="M653.5,193.7h0c-41.5,0-80.2-22.4-101-58.3-.6-1.1-.6-2.4,0-3.5.6-1.1,1.8-1.7,3-1.7h0c41.5,0,80.2,22.4,100.9,58.2,0,0,0,0,0,0,.6,1.1.6,2.4,0,3.5-.6,1.1-1.8,1.8-3,1.8ZM562,137.4c19,28.8,50.7,47.1,85.1,49.2-19-28.8-50.7-47.1-85.1-49.2Z"/>
        <path class="cls-1" d="M555.6,250.3c-1.2,0-2.4-.7-3-1.8-20.7-35.9-20.7-80.6,0-116.6.6-1.1,1.8-1.8,3-1.8h0c1.2,0,2.4.7,3,1.8,20.7,35.9,20.7,80.6,0,116.6-.6,1.1-1.8,1.8-3,1.8h0ZM555.6,141.1c-15.4,30.9-15.4,67.5,0,98.3,15.5-30.9,15.4-67.5,0-98.3Z"/>
        <path class="cls-1" d="M555.6,250.3h0c-41.5,0-80.2-22.4-101-58.3-.6-1.1-.6-2.4,0-3.5.6-1.1,1.8-1.7,3-1.7h0c41.5,0,80.2,22.4,101,58.3.6,1.1.6,2.4,0,3.5-.6,1.1-1.8,1.8-3,1.8ZM464.1,193.9c19,28.8,50.7,47.1,85.1,49.2-19-28.8-50.7-47.1-85.1-49.2Z"/>
        <path class="cls-1" d="M555.6,137.2h0c-41.5,0-80.2-22.4-101-58.3-.6-1.1-.6-2.4,0-3.5.6-1.1,1.8-1.7,3-1.7h0c41.5,0,80.2,22.4,101,58.3.6,1,.6,2.1.2,3.2-.2.4-.4.8-.7,1.1-.7.7-1.5,1-2.5,1ZM464.1,80.8c19,28.8,50.7,47.1,85.1,49.2-19-28.8-50.7-47.1-85.1-49.2Z"/>
        <path class="cls-1" d="M457.8,193.7c-1.3,0-2.5-.6-3.1-1.8-.6-1.1-.6-2.4,0-3.5,10.2-17.7,24.9-32.4,42.7-42.6,17.7-10.2,37.8-15.6,58.2-15.6,1.3,0,2.5.6,3.1,1.8.6,1.1.6,2.4,0,3.5-10.2,17.7-24.9,32.4-42.7,42.6-17.7,10.2-37.8,15.6-58.2,15.6ZM549.2,137.4c-17,1-33.6,6-48.4,14.5-14.8,8.6-27.4,20.5-36.8,34.7,17-1,33.6-6,48.4-14.5,14.8-8.6,27.4-20.5,36.8-34.6Z"/>
        <path class="cls-1" d="M457.7,193.7c-1.3,0-2.4-.7-3-1.8-20.7-35.9-20.7-80.6,0-116.6.6-1.1,1.8-1.8,3-1.8s2.4.7,3,1.8c20.7,35.9,20.7,80.6,0,116.6-.6,1.1-1.8,1.8-3,1.8h0ZM457.7,84.5c-15.4,30.9-15.4,67.5,0,98.3,15.5-30.9,15.4-67.5,0-98.3Z"/>
        <path class="cls-1" d="M66.1,306.8c-1.3,0-2.5-.6-3.1-1.8-.6-1.1-.6-2.4,0-3.5,10.2-17.7,24.9-32.4,42.7-42.7,17.7-10.2,37.8-15.6,58.2-15.6,1.3,0,2.5.6,3.1,1.8.6,1.1.6,2.4,0,3.5-10.2,17.7-24.9,32.4-42.7,42.6-17.7,10.2-37.8,15.6-58.2,15.6ZM157.6,250.4c-17,1-33.6,6-48.4,14.5-14.8,8.6-27.4,20.5-36.8,34.7,17-1,33.6-6,48.4-14.5,14.8-8.6,27.4-20.5,36.8-34.6Z"/>
        <path class="cls-1" d="M66,306.8c-1.3,0-2.4-.7-3-1.8-20.7-35.9-20.7-80.6,0-116.6.6-1.1,1.8-1.8,3-1.8h0c1.3,0,2.4.7,3,1.8,20.7,35.9,20.7,80.6,0,116.6-.6,1.1-1.8,1.8-3,1.8h0ZM66,197.6c-15.4,30.9-15.4,67.5,0,98.3,15.4-30.9,15.4-67.5,0-98.3Z"/>
        <path class="cls-1" d="M164,137.2c-1.3,0-2.5-.6-3.1-1.8-.6-1.1-.6-2.4,0-3.5,10.2-17.7,24.9-32.4,42.7-42.6,17.7-10.2,37.8-15.6,58.2-15.6,1.3,0,2.5.6,3.1,1.8.6,1.1.6,2.4,0,3.5-10.2,17.7-24.9,32.4-42.7,42.6-17.7,10.2-37.8,15.6-58.2,15.6ZM255.5,80.8c-17,1-33.6,6-48.4,14.5-14.8,8.6-27.4,20.5-36.8,34.7,17-1,33.6-6,48.4-14.5,14.8-8.6,27.4-20.5,36.8-34.6Z"/>
        <path class="cls-1" d="M261.9,193.7h0c-41.5,0-80.2-22.4-101-58.3-.6-1.1-.6-2.4,0-3.5.6-1.1,1.8-1.7,3-1.7h0c41.5,0,80.2,22.4,101,58.3.5.9.6,1.9.3,2.9,0,.3-.2.6-.4.8-.6,1-1.7,1.6-2.9,1.6ZM170.3,137.4c19,28.8,50.7,47.1,85.1,49.2-19-28.8-50.7-47.1-85.1-49.2Z"/>
        <path class="cls-1" d="M261.9,193.7c-1.3,0-2.4-.7-3-1.8-20.7-35.9-20.7-80.6,0-116.6.6-1.1,1.8-1.8,3-1.8h0c1.3,0,2.4.7,3,1.8,20.7,35.9,20.7,80.6,0,116.6-.6,1.1-1.8,1.8-3,1.8h0ZM261.9,84.5c-15.4,30.9-15.4,67.5,0,98.3,15.4-30.9,15.4-67.5,0-98.3Z"/>
        <path class="cls-1" d="M164,250.2c-1.3,0-2.5-.6-3.1-1.8-.6-1.1-.6-2.4,0-3.5,10.2-17.7,24.9-32.4,42.7-42.7,17.7-10.2,37.8-15.6,58.2-15.6,1.3,0,2.5.6,3.1,1.8.6,1.1.6,2.4,0,3.5-10.2,17.7-24.9,32.4-42.7,42.6-17.7,10.2-37.8,15.6-58.2,15.6ZM255.5,193.9c-17,1-33.6,6-48.4,14.5-14.8,8.6-27.4,20.5-36.8,34.7,17-1,33.6-6,48.4-14.5,14.8-8.6,27.4-20.5,36.8-34.6Z"/>
        <path class="cls-1" d="M66.1,193.7c-1.3,0-2.5-.6-3.1-1.8-.6-1.1-.6-2.4,0-3.5,10.2-17.7,24.9-32.4,42.7-42.6,17.7-10.2,37.8-15.6,58.2-15.6,1.3,0,2.5.6,3.1,1.8.6,1.1.6,2.4,0,3.5-10.2,17.7-24.9,32.4-42.7,42.6-17.7,10.2-37.8,15.6-58.2,15.6ZM157.5,137.3c-17,1-33.6,6-48.4,14.5-14.8,8.6-27.4,20.5-36.8,34.7,17-1,33.6-6,48.4-14.5,14.8-8.6,27.4-20.5,36.8-34.6Z"/>
        <path class="cls-1" d="M163.9,250.2h0c-41.5,0-80.2-22.4-101-58.3-.6-1.1-.6-2.4,0-3.5.6-1.1,1.8-1.7,3-1.7h0c41.5,0,80.2,22.4,101,58.3.6,1.1.6,2.4,0,3.5,0,0,0,.1-.1.2-.6,1-1.7,1.6-2.9,1.6ZM72.4,193.9c19,28.8,50.7,47.1,85.1,49.2-19-28.8-50.7-47.1-85.1-49.2Z"/>
        <path class="cls-1" d="M163.9,250.2c-1.3,0-2.4-.7-3-1.8-20.7-35.9-20.7-80.6,0-116.6.6-1.1,1.8-1.8,3-1.8h0c1.3,0,2.4.7,3,1.8,20.7,35.9,20.7,80.6,0,116.6-.6,1.1-1.8,1.8-3,1.8h0ZM163.9,141c-15.5,30.9-15.4,67.5,0,98.3,15.4-30.9,15.4-67.5,0-98.3Z"/>
        <path class="cls-1" d="M261.9,80.6c-1.3,0-2.5-.6-3.1-1.8-.6-1.1-.6-2.4,0-3.5,10.2-17.7,24.9-32.4,42.7-42.6,17.7-10.2,37.8-15.6,58.2-15.6,1.3,0,2.5.6,3.1,1.8.6,1.1.6,2.4,0,3.5-10.2,17.7-24.9,32.4-42.7,42.6-17.7,10.2-37.8,15.6-58.2,15.6ZM353.4,24.3c-17,1-33.6,6-48.4,14.5-14.8,8.6-27.4,20.5-36.8,34.7,17-1,33.6-6,48.4-14.5,14.8-8.6,27.4-20.5,36.8-34.6Z"/>
        <path class="cls-1" d="M359.8,137.2h0c-41.5,0-80.2-22.4-101-58.3-.6-1.1-.6-2.4,0-3.5.6-1.1,1.8-1.7,3-1.7h0c41.5,0,80.2,22.4,101,58.3.6,1,.6,2.3,0,3.4-.6,1.1-1.8,1.9-3.1,1.9ZM268.2,80.8c19,28.8,50.7,47.1,85.1,49.2-19-28.8-50.7-47.1-85.1-49.2Z"/>
        <path class="cls-1" d="M359.8,137.2c-1.3,0-2.4-.7-3-1.8-20.7-35.9-20.7-80.6,0-116.6.6-1.1,1.8-1.8,3-1.8h0c1.3,0,2.4.7,3,1.8,20.7,35.9,20.7,80.6,0,116.6-.6,1.1-1.8,1.8-3,1.8h0ZM359.8,28c-15.4,30.9-15.4,67.5,0,98.3,15.4-30.9,15.4-67.5,0-98.3Z"/>
        <path class="cls-1" d="M359.9,137.2c-1.3,0-2.5-.6-3.1-1.8-.6-1.1-.6-2.4,0-3.5,10.2-17.7,24.9-32.4,42.7-42.7,17.7-10.2,37.8-15.6,58.2-15.6,1.3,0,2.5.6,3.1,1.8.6,1.1.6,2.4,0,3.5-10.2,17.7-24.9,32.4-42.7,42.6-17.7,10.2-37.8,15.6-58.2,15.6ZM451.3,80.8c-17,1-33.6,6-48.4,14.5-14.8,8.6-27.4,20.5-36.8,34.7,17-1,33.6-6,48.4-14.5,14.8-8.6,27.4-20.5,36.8-34.6Z"/>
        <path class="cls-1" d="M457.7,80.6h0c-41.5,0-80.2-22.4-101-58.3-.6-1.1-.6-2.4,0-3.5.6-1.1,1.8-1.7,3-1.7h0c41.5,0,80.2,22.4,101,58.3.7,1.2.6,2.6-.1,3.7-.6,1-1.7,1.6-2.9,1.6ZM366.2,24.3c19,28.8,50.7,47.1,85.1,49.2-19-28.8-50.7-47.1-85.1-49.2Z"/>
        <path class="cls-1" d="M66.1,532.9c-1.3,0-2.5-.6-3.1-1.8-.6-1.1-.6-2.4,0-3.5,10.2-17.7,24.9-32.4,42.7-42.6,17.7-10.2,37.8-15.6,58.2-15.6,1.3,0,2.5.6,3.1,1.8.6,1.1.6,2.4,0,3.5-10.2,17.7-24.9,32.4-42.7,42.6-17.7,10.2-37.8,15.6-58.2,15.6ZM157.6,476.6c-17,1-33.6,6-48.4,14.5-14.8,8.6-27.4,20.5-36.8,34.7,17-1,33.6-6,48.4-14.5,14.8-8.6,27.4-20.5,36.8-34.6Z"/>
        <path class="cls-1" d="M164,589.5h0c-41.5,0-80.2-22.4-101-58.3-.6-1.1-.6-2.4,0-3.5.6-1.1,1.8-1.7,3-1.7h0c41.5,0,80.2,22.4,101,58.3.6,1,.6,2.3,0,3.3-.6,1.2-1.8,1.9-3.1,1.9ZM72.4,533.1c19,28.8,50.7,47.1,85.1,49.2-19-28.8-50.7-47.1-85.1-49.2Z"/>
        <path class="cls-1" d="M164.1,476.4c-1.3,0-2.5-.6-3.1-1.8-.6-1.1-.6-2.4,0-3.5,10.2-17.7,24.9-32.4,42.7-42.6,17.7-10.2,37.8-15.6,58.2-15.6,1.3,0,2.5.6,3.1,1.8.6,1.1.6,2.4,0,3.5-10.2,17.7-24.9,32.4-42.7,42.6-17.7,10.2-37.8,15.6-58.2,15.6ZM255.5,420.1c-17,1-33.6,6-48.4,14.5-14.8,8.6-27.4,20.5-36.8,34.7,17-1,33.6-6,48.4-14.5,14.8-8.6,27.4-20.5,36.8-34.6Z"/>
        <path class="cls-1" d="M164,589.5c-1.3,0-2.4-.7-3-1.8-20.7-35.9-20.7-80.6,0-116.6.6-1.1,1.8-1.8,3-1.8s2.4.7,3,1.8c20.7,35.9,20.7,80.6,0,116.6-.6,1.1-1.8,1.8-3,1.8h0ZM164,480.3c-15.4,30.9-15.4,67.5,0,98.3,15.5-30.9,15.4-67.5,0-98.3Z"/>
        <path class="cls-1" d="M261.9,533h0c-41.5,0-80.2-22.4-101-58.3-.6-1.1-.6-2.4,0-3.5.6-1.1,1.8-1.7,3-1.7h0c41.5,0,80.2,22.4,101,58.3.6,1,.6,2.3,0,3.3-.6,1.2-1.8,1.9-3.1,1.9ZM170.4,476.6c19,28.8,50.7,47.1,85.1,49.2-19-28.8-50.7-47.1-85.1-49.2Z"/>
        <path class="cls-1" d="M262,419.9c-1.3,0-2.5-.6-3.1-1.8-.6-1.1-.6-2.4,0-3.5,10.2-17.7,24.9-32.4,42.7-42.6,17.7-10.2,37.8-15.6,58.2-15.6,1.3,0,2.5.6,3.1,1.8.6,1.1.6,2.4,0,3.5-10.2,17.7-24.9,32.4-42.7,42.6-17.7,10.2-37.8,15.6-58.2,15.6ZM353.4,363.5c-17,1-33.6,6-48.4,14.5-14.8,8.6-27.4,20.5-36.8,34.7,17-1,33.6-6,48.4-14.5,14.8-8.6,27.4-20.5,36.8-34.6Z"/>
        <path class="cls-1" d="M261.9,533c-1.3,0-2.4-.7-3-1.8-20.7-35.9-20.7-80.6,0-116.6.6-1.1,1.8-1.8,3-1.8s2.4.7,3,1.8c20.7,35.9,20.7,80.6,0,116.6-.6,1.1-1.8,1.8-3,1.8h0ZM261.9,423.8c-15.4,30.9-15.4,67.5,0,98.3,15.5-30.9,15.4-67.5,0-98.3Z"/>
        <path class="cls-1" d="M359.8,476.4h0c-41.5,0-80.2-22.4-101-58.3-.6-1.1-.6-2.4,0-3.5.6-1.1,1.8-1.7,3-1.7h0c41.5,0,80.2,22.4,101,58.3.6,1,.6,2.3,0,3.3-.6,1.2-1.8,1.9-3.1,1.9ZM268.3,420.1c19,28.8,50.7,47.1,85.1,49.2-19-28.8-50.7-47.1-85.1-49.2Z"/>
        <path class="cls-1" d="M359.9,363.3c-1.3,0-2.5-.6-3.1-1.8-.6-1.1-.6-2.4,0-3.5,10.2-17.7,24.9-32.4,42.7-42.6,17.7-10.2,37.8-15.6,58.2-15.6,1.3,0,2.5.6,3.1,1.8.6,1.1.6,2.4,0,3.5-10.2,17.7-24.9,32.4-42.7,42.6-17.7,10.2-37.8,15.6-58.2,15.6ZM451.3,307c-17,1-33.6,6-48.4,14.5-14.8,8.6-27.4,20.5-36.8,34.7,17-1,33.6-6,48.4-14.5,14.8-8.6,27.4-20.5,36.8-34.6Z"/>
        <path class="cls-1" d="M359.8,476.4c-1.3,0-2.4-.7-3-1.8-20.7-35.9-20.7-80.6,0-116.6.6-1.1,1.8-1.8,3-1.8s2.4.7,3,1.8c20.7,35.9,20.7,80.6,0,116.6-.6,1.1-1.8,1.8-3,1.8h0ZM359.8,367.2c-15.4,30.9-15.4,67.5,0,98.3,15.5-30.9,15.4-67.5,0-98.3Z"/>
        <path class="cls-1" d="M457.7,419.9h0c-41.5,0-80.2-22.4-101-58.3-.6-1.1-.6-2.4,0-3.5.6-1.1,1.8-1.7,3-1.7h0c41.5,0,80.2,22.4,101,58.3.3.5.5,1.1.5,1.8s-.2,1.2-.4,1.7c-.6,1.1-1.8,1.8-3.1,1.8ZM366.2,363.5c19,28.8,50.7,47.1,85.1,49.2-19-28.8-50.7-47.1-85.1-49.2Z"/>
        <path class="cls-1" d="M457.8,306.8c-1.3,0-2.5-.6-3.1-1.8-.6-1.1-.6-2.4,0-3.5,10.2-17.7,24.9-32.4,42.7-42.6,17.7-10.2,37.8-15.6,58.2-15.6,1.3,0,2.5.6,3.1,1.8.6,1.1.6,2.4,0,3.5-10.2,17.7-24.9,32.4-42.7,42.6-17.7,10.2-37.8,15.6-58.2,15.6ZM549.3,250.5c-17,1-33.6,6-48.4,14.5-14.8,8.6-27.4,20.5-36.8,34.7,17-1,33.6-6,48.4-14.5,14.8-8.6,27.4-20.5,36.8-34.6Z"/>
        <path class="cls-1" d="M457.7,419.9c-1.2,0-2.4-.7-3-1.8-20.7-35.9-20.7-80.6,0-116.6.6-1.1,1.8-1.8,3-1.8s2.4.7,3,1.8c20.7,35.9,20.7,80.6,0,116.6-.6,1.1-1.8,1.8-3,1.8h0ZM457.7,310.7c-15.4,30.9-15.4,67.5,0,98.3,15.5-30.9,15.4-67.5,0-98.3Z"/>
        <path class="cls-1" d="M555.6,363.4h0c-41.5,0-80.2-22.4-101-58.3-.6-1.1-.6-2.4,0-3.5.6-1.1,1.8-1.7,3-1.7h0c41.5,0,80.2,22.4,101,58.3.6,1.1.6,2.4,0,3.5-.6,1.1-1.8,1.8-3,1.8ZM464.1,307c19,28.8,50.7,47.1,85.1,49.2-19-28.8-50.7-47.1-85.1-49.2Z"/>
        <path class="cls-1" d="M653.6,306.8c-1.2,0-2.4-.7-3-1.8-20.7-35.9-20.7-80.6,0-116.6.6-1.1,1.8-1.8,3-1.8h0c1.2,0,2.4.7,3,1.7.3.5.6,1.1.9,1.6l.6,1c9.7,17.8,14.6,37.9,14.1,58-.4,19.6-5.8,38.9-15.6,55.9-.6,1.1-1.8,1.8-3,1.8h0ZM653.6,197.6c-15.5,30.9-15.5,67.5,0,98.3,15.6-31.1,15.7-67.2,0-98.3Z"/>
        <path class="cls-1" d="M555.7,250.3c-1.3,0-2.5-.6-3.1-1.8-.6-1.1-.6-2.4,0-3.5,10.2-17.7,24.9-32.4,42.7-42.6,17.7-10.2,37.8-15.6,58.2-15.6,1.3,0,2.5.6,3.1,1.8.6,1.1.6,2.4,0,3.5-10.2,17.7-24.9,32.4-42.7,42.6h0c-17.7,10.2-37.8,15.6-58.2,15.6ZM647.2,193.9c-17,1-33.6,6-48.4,14.5-14.8,8.6-27.4,20.5-36.8,34.7,17-1,33.6-6,48.4-14.5h0c14.8-8.6,27.4-20.5,36.8-34.6Z"/>
        <path class="cls-1" d="M653.6,306.8h0c-41.5,0-80.2-22.4-101-58.3-.6-1.1-.6-2.4,0-3.5.6-1.1,1.8-1.7,3-1.7h0c41.5,0,80.2,22.4,101,58.3.6,1.1.6,2.4,0,3.5-.6,1.1-1.8,1.8-3,1.8ZM562,250.5c19,28.8,50.7,47.1,85.1,49.2-19-28.8-50.7-47.1-85.1-49.2Z"/>
        <path class="cls-1" d="M555.6,363.4c-1.2,0-2.4-.7-3-1.8-20.7-35.9-20.7-80.6,0-116.6.6-1.1,1.8-1.8,3-1.8s2.4.7,3,1.8c20.7,35.9,20.7,80.6,0,116.6-.6,1.1-1.8,1.8-3,1.8h0ZM555.6,254.2c-15.4,30.9-15.4,67.5,0,98.3,15.5-30.9,15.4-67.5,0-98.3Z"/>
        <path class="cls-1" d="M164.1,589.5c-1.3,0-2.5-.6-3.1-1.8-.6-1.1-.6-2.4,0-3.5,10.2-17.7,24.9-32.4,42.7-42.7,17.7-10.2,37.8-15.6,58.2-15.6,1.3,0,2.5.6,3.1,1.8.6,1.1.6,2.4,0,3.5-10.2,17.7-24.9,32.4-42.7,42.6-17.7,10.2-37.8,15.6-58.2,15.6ZM255.5,533.1c-17,1-33.6,6-48.4,14.5-14.8,8.6-27.4,20.5-36.8,34.7,17-1,33.6-6,48.4-14.5,14.8-8.6,27.4-20.5,36.8-34.6Z"/>
        <path class="cls-1" d="M261.9,646h0c-41.5,0-80.2-22.4-101-58.3-.6-1.1-.6-2.4,0-3.5.6-1.1,1.8-1.7,3-1.7h0c41.5,0,80.2,22.4,101,58.3.6,1,.6,2.3,0,3.3-.6,1.2-1.8,1.9-3.1,1.9ZM170.4,589.7c19,28.8,50.7,47.1,85.1,49.2-19-28.8-50.7-47.1-85.1-49.2Z"/>
        <path class="cls-1" d="M262,533c-1.3,0-2.5-.6-3.1-1.8-.6-1.1-.6-2.4,0-3.5,10.2-17.7,24.9-32.4,42.7-42.7,17.7-10.2,37.8-15.6,58.2-15.6,1.3,0,2.5.6,3.1,1.8.6,1.1.6,2.4,0,3.5-10.2,17.7-24.9,32.4-42.7,42.6-17.7,10.2-37.8,15.6-58.2,15.6ZM353.4,476.6c-17,1-33.6,6-48.4,14.5-14.8,8.6-27.4,20.5-36.8,34.7,17-1,33.6-6,48.4-14.5,14.8-8.6,27.4-20.5,36.8-34.6Z"/>
        <path class="cls-1" d="M261.9,646c-1.3,0-2.4-.7-3-1.8-20.7-35.9-20.7-80.6,0-116.6.6-1.1,1.8-1.8,3-1.8s2.4.7,3,1.8c20.7,35.9,20.7,80.6,0,116.6-.6,1.1-1.8,1.8-3,1.8h0ZM261.9,536.8c-15.4,30.9-15.4,67.5,0,98.3,15.5-30.9,15.4-67.5,0-98.3Z"/>
        <path class="cls-1" d="M359.8,589.5h0c-41.5,0-80.2-22.4-101-58.3-.6-1.1-.6-2.4,0-3.5.6-1.1,1.8-1.7,3-1.7h0c41.5,0,80.2,22.4,101,58.3.6,1,.6,2.3,0,3.3-.6,1.2-1.8,1.9-3.1,1.9ZM268.3,533.2c19,28.8,50.7,47.1,85.1,49.2-19-28.8-50.7-47.1-85.1-49.2Z"/>
        <path class="cls-1" d="M359.9,476.4c-1.3,0-2.5-.6-3.1-1.8-.6-1.1-.6-2.4,0-3.5,10.2-17.7,24.9-32.4,42.7-42.7,17.7-10.2,37.8-15.6,58.2-15.6,1.3,0,2.5.6,3.1,1.8.6,1.1.6,2.4,0,3.5-10.2,17.7-24.9,32.4-42.7,42.6-17.7,10.2-37.8,15.6-58.2,15.6ZM451.3,420.1c-17,1-33.6,6-48.4,14.5-14.8,8.6-27.4,20.5-36.8,34.7,17-1,33.6-6,48.4-14.5,14.8-8.6,27.4-20.5,36.8-34.6Z"/>
        <path class="cls-1" d="M359.8,589.5c-1.3,0-2.4-.7-3-1.8-20.7-35.9-20.7-80.6,0-116.6.6-1.1,1.8-1.8,3-1.8s2.4.7,3,1.8c20.7,35.9,20.7,80.6,0,116.6-.6,1.1-1.8,1.8-3,1.8h0ZM359.8,480.3c-15.4,30.9-15.4,67.5,0,98.3,15.5-30.9,15.4-67.5,0-98.3Z"/>
        <path class="cls-1" d="M457.7,533h0c-41.5,0-80.2-22.4-101-58.3-.6-1.1-.6-2.4,0-3.5.6-1.1,1.8-1.7,3-1.7h0c41.5,0,80.2,22.4,101,58.3.6,1.1.6,2.4,0,3.5-.6,1.1-1.8,1.8-3,1.8ZM366.2,476.6c19,28.8,50.7,47.1,85.1,49.2-19-28.8-50.7-47.1-85.1-49.2Z"/>
        <path class="cls-1" d="M457.8,419.9c-1.3,0-2.5-.6-3.1-1.8-.6-1.1-.6-2.4,0-3.5,10.2-17.7,24.9-32.4,42.7-42.7,17.7-10.2,37.8-15.6,58.2-15.6,1.3,0,2.5.6,3.1,1.8.6,1.1.6,2.4,0,3.5-10.2,17.7-24.9,32.4-42.7,42.6-17.7,10.2-37.8,15.6-58.2,15.6ZM549.3,363.5c-17,1-33.6,6-48.4,14.5-14.8,8.6-27.4,20.5-36.8,34.7,17-1,33.6-6,48.4-14.5,14.8-8.6,27.4-20.5,36.8-34.6Z"/>
        <path class="cls-1" d="M457.7,533c-1.2,0-2.4-.7-3-1.8-20.7-35.9-20.7-80.6,0-116.6.6-1.1,1.8-1.8,3-1.8s2.4.7,3,1.8c20.7,35.9,20.7,80.6,0,116.6-.6,1.1-1.8,1.8-3,1.8h0ZM457.7,423.8c-15.4,30.9-15.4,67.5,0,98.3,15.5-30.9,15.4-67.5,0-98.3Z"/>
        <path class="cls-1" d="M555.7,476.4h0c-41.5,0-80.2-22.4-101-58.3-.6-1.1-.6-2.4,0-3.5.6-1.1,1.8-1.7,3-1.7h0c41.5,0,80.2,22.4,101,58.3.6,1.1.6,2.4,0,3.5-.6,1.1-1.8,1.8-3,1.8ZM464.1,420.1c19,28.8,50.7,47.1,85.1,49.2-19-28.8-50.7-47.1-85.1-49.2Z"/>
        <path class="cls-1" d="M653.6,419.9c-1.2,0-2.4-.7-3-1.8-20.7-35.9-20.7-80.6,0-116.6.6-1.1,1.8-1.8,3-1.8s2.4.7,3,1.8c20.7,35.9,20.7,80.6,0,116.6-.6,1.1-1.8,1.8-3,1.8h0ZM653.6,310.7c-15.4,30.9-15.4,67.5,0,98.3,15.5-30.9,15.4-67.5,0-98.3Z"/>
        <path class="cls-1" d="M555.7,363.4h0c-1.2,0-2.4-.7-3-1.8-.6-1.1-.6-2.4,0-3.5,10.2-17.7,24.9-32.4,42.7-42.6,17.7-10.2,37.8-15.6,58.2-15.6,1.3,0,2.5.6,3.1,1.8.6,1.1.6,2.4,0,3.5-10.2,17.7-24.9,32.4-42.7,42.6-17.7,10.2-37.8,15.6-58.2,15.6ZM647.2,307c-17,1-33.6,6-48.4,14.5-14.8,8.6-27.4,20.5-36.8,34.7,17-1,33.6-6,48.4-14.5,14.8-8.6,27.4-20.5,36.8-34.6Z"/>
        <path class="cls-1" d="M555.7,476.4c-1.2,0-2.4-.7-3-1.8-20.7-35.9-20.7-80.6,0-116.6.6-1.1,1.8-1.8,3-1.8s2.4.7,3,1.8c20.7,35.9,20.7,80.6,0,116.6-.6,1.1-1.8,1.8-3,1.8h0ZM555.6,367.2c-15.4,30.9-15.4,67.5,0,98.3,15.5-30.9,15.4-67.5,0-98.3Z"/>
        <path class="cls-1" d="M653.6,419.9h0c-41.5,0-80.2-22.4-101-58.3-.6-1.1-.6-2.4,0-3.5.6-1.1,1.8-1.7,3-1.7h0c41.5,0,80.2,22.4,101,58.3.6,1.1.6,2.4,0,3.5-.6,1.1-1.8,1.8-3,1.8ZM562,363.6c19,28.8,50.7,47.1,85.1,49.2-19-28.8-50.7-47.1-85.1-49.2Z"/>
        <path class="cls-1" d="M262,646c-1.3,0-2.5-.6-3.1-1.8-.6-1.1-.6-2.4,0-3.5,10.2-17.7,24.9-32.4,42.7-42.6,17.7-10.2,37.8-15.6,58.2-15.6,1.3,0,2.5.6,3.1,1.8.6,1.1.6,2.4,0,3.5-10.2,17.7-24.9,32.4-42.7,42.6-17.7,10.2-37.8,15.6-58.2,15.6ZM353.4,589.7c-17,1-33.6,6-48.4,14.5-14.8,8.6-27.4,20.5-36.8,34.7,17-1,33.6-6,48.4-14.5,14.8-8.6,27.4-20.5,36.8-34.6Z"/>
        <path class="cls-1" d="M359.8,702.5h0c-2,0-3.9,0-5.9,0,0,0,0,0-.1,0-39.6-2.1-75.1-23.8-94.9-58.1-.6-1.1-.6-2.4,0-3.5.6-1.1,1.8-1.7,3-1.7h0c41.5,0,80.1,22.3,100.9,58.2.6,1.1.6,2.4,0,3.5-.6,1.1-1.8,1.8-3,1.8ZM268.3,646.2c19,28.9,50.3,47.1,85.1,49.1-19-28.8-50.7-47.1-85.1-49.1Z"/>
        <path class="cls-1" d="M359.9,589.5c-1.3,0-2.5-.6-3.1-1.8-.6-1.1-.6-2.4,0-3.5,10.2-17.7,24.9-32.4,42.7-42.6,17.7-10.2,37.8-15.6,58.2-15.6,1.3,0,2.5.6,3.1,1.8.6,1.1.6,2.4,0,3.5-10.2,17.7-24.9,32.4-42.7,42.6-17.7,10.2-37.8,15.6-58.2,15.6ZM451.4,533.2c-17,1-33.6,6-48.4,14.5-14.8,8.6-27.4,20.5-36.8,34.7,17-1,33.6-6,48.4-14.5,14.8-8.6,27.4-20.5,36.8-34.6Z"/>
        <path class="cls-1" d="M359.9,702.5s0,0-.1,0c-1.2,0-2.4-.7-3.1-1.8-20.7-35.9-20.7-80.5,0-116.5.6-1.1,1.8-1.8,3-1.8s2.4.7,3,1.8c20.7,35.9,20.7,80.5,0,116.5-.6,1.1-1.8,1.8-3,1.8ZM359.8,593.4c-15.4,30.9-15.4,67.5,0,98.3,15.4-30.9,15.4-67.5,0-98.3Z"/>
        <path class="cls-1" d="M457.7,646.1h0c-41.5,0-80.2-22.4-101-58.3-.6-1.1-.6-2.4,0-3.5.6-1.1,1.8-1.7,3-1.7h0c41.5,0,80.2,22.4,101,58.3.6,1.1.6,2.4,0,3.5-.6,1.1-1.8,1.8-3,1.8ZM366.2,589.7c19,28.8,50.7,47.1,85.1,49.2-19-28.8-50.7-47.1-85.1-49.2Z"/>
        <path class="cls-1" d="M457.8,533c-1.3,0-2.5-.6-3.1-1.8-.6-1.1-.6-2.4,0-3.5,10.2-17.7,24.9-32.4,42.7-42.6,17.7-10.2,37.8-15.6,58.2-15.6,1.3,0,2.5.6,3.1,1.8.6,1.1.6,2.4,0,3.5-10.2,17.7-24.9,32.4-42.7,42.6-17.7,10.2-37.8,15.6-58.2,15.6ZM549.3,476.6c-17,1-33.6,6-48.4,14.5-14.8,8.6-27.4,20.5-36.8,34.7,17-1,33.6-6,48.4-14.5,14.8-8.6,27.4-20.5,36.8-34.6Z"/>
        <path class="cls-1" d="M457.7,646.1c-1.2,0-2.4-.7-3-1.8-20.7-35.9-20.7-80.6,0-116.6.6-1.1,1.8-1.8,3-1.8s2.4.7,3,1.8c20.7,35.9,20.7,80.6,0,116.6-.6,1.1-1.8,1.8-3,1.8h0ZM457.7,536.9c-15.4,30.9-15.4,67.5,0,98.3,15.5-30.9,15.4-67.5,0-98.3Z"/>
        <path class="cls-1" d="M555.7,589.5h0c-41.5,0-80.2-22.4-101-58.3-.6-1.1-.6-2.4,0-3.5.6-1.1,1.8-1.7,3-1.7h0c41.5,0,80.2,22.4,101,58.3.3.5.5,1.1.5,1.8,0,.9-.4,1.8-1,2.5s-1.5,1-2.5,1ZM464.1,533.2c19,28.8,50.7,47.1,85.1,49.2-19-28.8-50.7-47.1-85.1-49.2Z"/>
        <path class="cls-1" d="M555.7,476.4c-1.3,0-2.5-.6-3.1-1.8-.6-1.1-.6-2.4,0-3.5,10.2-17.7,24.9-32.4,42.7-42.6,17.7-10.2,37.8-15.6,58.2-15.6,1.3,0,2.5.6,3.1,1.8.6,1.1.6,2.4,0,3.5-10.2,17.7-24.9,32.4-42.7,42.6-17.7,10.2-37.8,15.6-58.2,15.6ZM647.2,420.1c-17,1-33.6,6-48.4,14.5-14.8,8.6-27.4,20.5-36.8,34.7,17-1,33.6-6,48.4-14.5,14.8-8.6,27.4-20.5,36.8-34.6Z"/>
        <path class="cls-1" d="M555.7,589.5c-1.2,0-2.4-.7-3-1.8-20.7-35.9-20.7-80.6,0-116.6.6-1.1,1.8-1.8,3-1.8s2.4.7,3,1.8c20.7,35.9,20.7,80.6,0,116.6-.6,1.1-1.8,1.8-3,1.8h0ZM555.7,480.3c-15.4,30.9-15.4,67.5,0,98.3,15.5-30.9,15.4-67.5,0-98.3Z"/>
        <path class="cls-1" d="M653.5,533h0c-41.5,0-80.1-22.4-100.8-58.3-.6-1.1-.6-2.4,0-3.5.6-1.1,1.8-1.7,3-1.7h0c41.5,0,80.1,22.3,100.9,58.2.6,1.1.6,2.5,0,3.5h0c-.6,1.2-1.8,1.8-3,1.8ZM562,476.6c19,28.8,50.7,47.1,85.1,49.2-19-28.8-50.7-47.1-85.1-49.2Z"/>
        <path class="cls-1" d="M653.5,532.9h0c-1.3,0-2.4-.7-3-1.8-20.7-35.9-20.7-80.5,0-116.5.6-1.1,1.8-1.8,3-1.8s2.4.7,3,1.8c19.8,34.2,20.9,75.8,3,111.1,0,0,0,0,0,.1-1,1.8-2,3.5-3,5.3-.6,1.1-1.8,1.8-3,1.8ZM653.6,423.8c-15.4,30.9-15.4,67.5,0,98.3,15.6-31.2,15.5-67.4,0-98.3Z"/>
        <path class="cls-1" d="M360,702.5c-1.3,0-2.5-.6-3.1-1.8-.6-1.1-.6-2.4,0-3.5,10.2-17.6,24.9-32.3,42.6-42.5,17.7-10.2,37.8-15.6,58.2-15.6h0c1.2,0,2.4.7,3,1.8s.6,2.4,0,3.5c-10.2,17.7-24.9,32.4-42.7,42.6-16,9.3-33.5,14.5-51.9,15.5,0,0,0,0-.1,0-2,0-4.1,0-6.1,0ZM451.4,646.2c-17,1-33.6,6-48.4,14.5-14.8,8.6-27.4,20.5-36.8,34.6,17.1-1,33.4-5.9,48.4-14.5,14.8-8.6,27.4-20.5,36.8-34.6Z"/>
        <path class="cls-1" d="M457.8,646.1c-1.3,0-2.5-.6-3.1-1.8-.6-1.1-.6-2.4,0-3.5,10.2-17.7,24.9-32.4,42.7-42.6,17.7-10.2,37.8-15.6,58.2-15.6h0c1.2,0,2.4.7,3,1.8.6,1.1.6,2.4,0,3.5-10.2,17.7-24.9,32.4-42.7,42.6-17.7,10.2-37.8,15.6-58.2,15.6ZM549.3,589.7c-17,1-33.6,6-48.4,14.5-14.8,8.6-27.4,20.5-36.8,34.7,17-1,33.6-6,48.4-14.5,14.8-8.6,27.4-20.5,36.8-34.6Z"/>
        <path class="cls-1" d="M555.8,589.5c-1.3,0-2.5-.6-3.1-1.8-.6-1.1-.6-2.4,0-3.5,10.2-17.7,24.9-32.4,42.7-42.6h0c17.7-10.2,37.8-15.6,58.1-15.6h0c1.2,0,2.4.7,3,1.7.6,1.1.6,2.4,0,3.5-1.1,1.8-2.2,3.7-3.3,5.5,0,0,0,0,0,.1-10,15.3-23.2,27.8-39.2,37-17.7,10.2-37.8,15.6-58.2,15.6ZM647.2,533.2c-17,1-33.6,6-48.4,14.5h0c-14.8,8.6-27.4,20.5-36.8,34.7,17-1,33.6-6,48.4-14.5,15-8.6,27.3-20.3,36.8-34.6ZM597.1,544.7h0,0Z"/>
      </g>
    </g>
  </g>
</svg>